<svg xmlns="http://www.w3.org/2000/svg" xmlns:xlink="http://www.w3.org/1999/xlink" viewBox="0 0 53 53" enable-background="new 0 0 53 53" width="53" height="53"><filter height="130%" id="camera-dropshadow"><feOffset dy="2" result="offsetblur"></feOffset><feComponentTransfer><feFuncA slope=".08" type="linear"></feFuncA></feComponentTransfer><feMerge><feMergeNode></feMergeNode><feMergeNode in="SourceGraphic"></feMergeNode></feMerge></filter><defs><circle id="camera-SVGID_1_" cx="26.5" cy="26.5" r="25.5"></circle></defs><clipPath id="camera-SVGID_2_"><use xlink:href="#camera-SVGID_1_" overflow="visible"></use></clipPath><g clip-path="url(#camera-SVGID_2_)"><path fill="#4E5DA9" d="M33.7 33.7l-6.9-.3-11.9 18.4c5.9 3.6 19.8 4.4 28.8-3.2L35 32.8c-.3.2-.8.9-1.3.9z"></path><path fill="#92C654" d="M19.2 33.7c-1 0-1.8-.8-1.8-1.8v-1.6l-19-.5c.1 12 8.7 20 17.4 23.5l11.3-19.5h-7.9z"></path><path fill="#FEC226" d="M17.4 21.1c0-.9 1-1.8 1.9-1.9L10.9 4.1C4.2 7.1-1.8 16.9-1.7 30.9h19.1v-9.8z"></path><path fill="#F47B34" d="M19.2 19.3l9.2.4L39.6 1.8C36.4-.7 20.9-4.6 10.1 3.4l9.1 15.9z"></path><path fill="#DE5144" d="M39 .8L28.4 19.3h5.3c1 0 1.8.8 1.8 1.8l-.3 3.1h19.5C54.2 12.6 47.2 4.8 39 .8z"></path><path fill="#5D84C3" d="M54.7 23.5H35.5v-2.4c0-1-.8-1.8-1.8-1.8H19.1c-.9 0-1.7.8-1.7 1.8V32c0 1 .8 1.8 1.8 1.8h14.5c.4 0 .8-.2 1.2-.4l8.4 15.7c11.5-8.2 11.5-24.5 11.4-25.6z"></path></g><path fill="#F5F5F5" filter="url(#camera-dropshadow)" d="M33.8 34H18c-.9 0-1.6-.7-1.6-1.6v-11c0-.3.2-.7.4-.9l2.2-2.4c.2-.2.6-.4.9-.4h2.6c.3 0 .7.2.9.4l1.4 1.5h9c.9 0 1.6.7 1.6 1.6v11.2c0 .9-.7 1.6-1.6 1.6zm-7.9-11.9c-2.6 0-4.7 2.1-4.7 4.7s2.1 4.7 4.7 4.7 4.7-2.1 4.7-4.7-2.1-4.7-4.7-4.7zm0 8c-1.8 0-3.3-1.5-3.3-3.3s1.5-3.3 3.3-3.3 3.3 1.5 3.3 3.3-1.5 3.3-3.3 3.3z"></path></svg>