<svg id="contact-Layer_1" xmlns="http://www.w3.org/2000/svg" xmlns:xlink="http://www.w3.org/1999/xlink" viewBox="0 0 53 53" enable-background="new 0 0 53 53" width="53" height="53"><filter height="130%" id="contact-dropshadow"><feOffset dy="2" result="offsetblur"></feOffset><feComponentTransfer><feFuncA slope=".08" type="linear"></feFuncA></feComponentTransfer><feMerge><feMergeNode></feMergeNode><feMergeNode in="SourceGraphic"></feMergeNode></feMerge></filter><defs><circle id="contact-SVGID_1_" cx="26.5" cy="26.5" r="25.5"></circle></defs><clipPath id="contact-SVGID_2_"><use xlink:href="#contact-SVGID_1_" overflow="visible"></use></clipPath><g clip-path="url(#contact-SVGID_2_)"><path fill="#0A7BBF" d="M26.5-1.1C11.9-1.1-1.1 5.6-1.1 27.6h55.2c-.1-19-13-28.7-27.6-28.7z"></path><path fill="#09ABF4" d="M53 26.5H-1.1c0 14.6 13 27.6 27.6 27.6s27.6-13 27.6-27.6H53z"></path></g><path fill="#F5F5F5" filter="url(#contact-dropshadow)" d="M26.5 26.1c-2.5 0-4.6-2-4.6-4.6 0-2.5 2-4.6 4.6-4.6 2.5 0 4.6 2 4.6 4.6s-2.1 4.6-4.6 4.6zm-.2 8.4h-8.9V32c0-.4.1-.8.4-1.1 1.3-1.3 4.6-2.4 8.5-2.4s7.3 1.1 8.7 2.4c.3.3.6.7.6 1.1v2.5h-9.3z"></path></svg>