<svg width="24" height="24" viewBox="0 0 24 24" fill="none" xmlns="http://www.w3.org/2000/svg">
<g clip-path="url(#clip0_6942_35149)">
<path d="M1.66897 8.74613L2.92428 10.0014C3.24744 10.3247 3.63109 10.581 4.05334 10.756C4.4756 10.9309 4.92817 11.0209 5.38522 11.0209C5.84227 11.0209 6.29484 10.9309 6.71709 10.756C7.13934 10.581 7.523 10.3247 7.84616 10.0014L9.69209 8.15645C9.8537 7.99487 9.98189 7.80304 10.0694 7.59191C10.1568 7.38079 10.2018 7.1545 10.2018 6.92598C10.2018 6.69745 10.1568 6.47117 10.0694 6.26004C9.98189 6.04892 9.8537 5.85709 9.69209 5.69551L6.10241 2.10582C5.92695 1.92865 5.71551 1.79119 5.48238 1.70272C5.24925 1.61426 4.99985 1.57685 4.75103 1.59303C4.5022 1.6092 4.25974 1.67858 4.04003 1.79648C3.82031 1.91438 3.62845 2.07805 3.47741 2.27645C-0.281032 7.38395 1.99428 12.7633 6.61616 17.3843C11.238 22.0052 16.6165 24.2814 21.724 20.523C21.9224 20.372 22.086 20.1801 22.2039 19.9604C22.3218 19.7407 22.3912 19.4982 22.4074 19.2494C22.4236 19.0006 22.3862 18.7512 22.2977 18.518C22.2092 18.2849 22.0718 18.0735 21.8946 17.898L18.3058 14.3083C18.1443 14.1467 17.9524 14.0185 17.7413 13.9311C17.5302 13.8436 17.3039 13.7986 17.0754 13.7986C16.8469 13.7986 16.6206 13.8436 16.4094 13.9311C16.1983 14.0185 16.0065 14.1467 15.8449 14.3083L13.999 16.1543C13.6758 16.4774 13.4194 16.8611 13.2444 17.2833C13.0695 17.7056 12.9795 18.1581 12.9795 18.6152C12.9795 19.0722 13.0695 19.5248 13.2444 19.9471C13.4194 20.3693 13.6758 20.753 13.999 21.0761L15.2683 22.3455" stroke="black" stroke-width="1.5" stroke-linecap="round" stroke-linejoin="round"/>
</g>
<defs>
<clipPath id="clip0_6942_35149">
<rect width="24" height="24" fill="white"/>
</clipPath>
</defs>
</svg>
