
<svg version="1.0" xmlns="http://www.w3.org/2000/svg"
 width="512.000000pt" height="512.000000pt" viewBox="0 0 512.000000 512.000000"
 preserveAspectRatio="xMidYMid meet">

<g transform="translate(0.000000,512.000000) scale(0.100000,-0.100000)"
fill="#000000" stroke="none">
<path d="M1184 5000 c-50 -15 -125 -71 -161 -118 -42 -55 -63 -128 -63 -218
l0 -72 -207 -4 c-175 -5 -218 -9 -274 -27 -172 -55 -308 -200 -354 -377 -23
-87 -23 -3160 0 -3247 46 -177 180 -320 354 -380 l66 -22 1194 -3 1195 -3 90
-87 c229 -221 502 -332 815 -332 312 0 585 110 810 324 234 224 361 521 361
847 0 313 -111 586 -332 815 l-87 90 -3 980 c-3 917 -4 982 -22 1034 -60 182
-188 309 -366 365 -42 14 -104 19 -261 22 l-207 5 -4 97 c-3 79 -9 105 -31
147 -119 233 -453 232 -568 -1 -26 -53 -32 -80 -37 -155 l-5 -90 -742 0 -743
0 -4 93 c-3 76 -9 103 -31 149 -31 62 -84 116 -149 149 -48 25 -180 36 -234
19z m147 -216 c53 -27 59 -59 59 -304 0 -168 -3 -229 -14 -255 -15 -35 -59
-65 -96 -65 -37 0 -81 30 -96 65 -18 44 -20 454 -3 504 13 36 61 71 97 71 13
0 37 -7 53 -16z m2158 -18 l26 -26 0 -259 0 -259 -24 -26 c-48 -51 -142 -40
-170 20 -15 33 -15 494 0 527 27 60 118 73 168 23z m-2527 -489 c5 -110 34
-183 98 -241 73 -66 114 -81 220 -81 106 0 147 15 220 81 64 58 93 131 98 241
l4 93 743 0 742 0 5 -89 c7 -109 36 -181 103 -245 65 -63 138 -89 235 -84 120
7 213 67 268 173 21 41 27 67 30 148 l4 97 188 0 c149 0 199 -4 240 -17 65
-21 142 -89 178 -157 26 -50 27 -55 30 -258 l3 -208 -2025 0 -2026 0 0 183 c0
207 10 259 63 329 36 48 112 103 161 117 17 5 117 10 222 10 l192 1 4 -93z
m3408 -1353 c0 -473 -3 -595 -12 -591 -197 86 -285 108 -473 114 -169 6 -275
-8 -410 -53 -105 -35 -254 -112 -335 -173 -84 -63 -214 -199 -269 -280 -65
-95 -137 -253 -166 -366 -33 -123 -44 -336 -25 -466 12 -89 60 -249 91 -311
11 -21 19 -40 19 -43 0 -3 -505 -4 -1122 -3 l-1123 3 -43 23 c-66 35 -119 88
-149 150 l-28 57 -3 1268 -2 1267 2025 0 2025 0 0 -596z m-299 -713 c300 -78
547 -293 658 -572 53 -132 65 -199 65 -359 0 -160 -12 -227 -65 -359 -47 -117
-114 -217 -213 -317 -134 -133 -280 -215 -462 -261 -105 -26 -334 -24 -441 4
-352 93 -609 348 -705 702 -28 102 -31 342 -5 445 96 381 389 659 770 732 100
19 299 12 398 -15z"/>
<path d="M912 3295 c-62 -19 -106 -57 -136 -117 -24 -49 -26 -61 -26 -192 0
-159 11 -196 71 -253 57 -54 92 -63 247 -63 129 0 142 2 190 26 98 49 132 124
132 289 0 133 -19 196 -74 251 -56 56 -118 74 -255 73 -58 0 -125 -6 -149 -14z
m256 -307 l-3 -103 -100 0 -100 0 -3 89 c-2 49 -1 95 2 103 4 10 32 13 106 13
l101 0 -3 -102z"/>
<path d="M1785 3301 c-79 -20 -152 -88 -173 -160 -7 -21 -12 -94 -12 -162 0
-109 3 -130 24 -174 25 -54 71 -100 123 -122 22 -9 78 -13 173 -13 95 0 151 4
173 13 52 22 98 68 123 122 21 44 24 65 24 174 0 143 -10 186 -58 241 -59 69
-98 83 -242 86 -69 2 -138 0 -155 -5z m240 -316 l0 -100 -105 0 -105 0 -3 89
c-2 49 0 96 2 103 4 11 29 13 108 11 l103 -3 0 -100z"/>
<path d="M2610 3290 c-114 -39 -160 -127 -160 -305 0 -165 34 -240 132 -289
48 -24 61 -26 190 -26 155 0 190 9 247 63 60 57 71 94 71 253 0 131 -2 143
-26 192 -49 99 -123 132 -293 132 -77 -1 -121 -6 -161 -20z m265 -305 l0 -100
-100 0 -100 0 -3 103 -3 103 103 -3 103 -3 0 -100z"/>
<path d="M3472 3295 c-62 -19 -106 -57 -136 -117 -24 -49 -26 -61 -26 -192 0
-159 11 -196 71 -253 57 -54 92 -63 247 -63 129 0 142 2 190 26 98 49 132 124
132 289 0 133 -19 196 -74 251 -56 56 -118 74 -255 73 -58 0 -125 -6 -149 -14z
m256 -307 l-3 -103 -100 0 -100 0 -3 89 c-2 49 -1 95 2 103 4 10 32 13 106 13
l101 0 -3 -102z"/>
<path d="M885 2431 c-22 -10 -54 -34 -72 -52 -54 -57 -63 -92 -63 -247 0 -129
2 -141 26 -191 49 -98 125 -131 298 -131 123 0 189 20 242 74 55 55 74 118 74
251 0 166 -37 246 -134 291 -46 22 -64 24 -191 24 -115 0 -147 -4 -180 -19z
m283 -299 l3 -103 -103 3 -103 3 -3 89 c-2 49 0 96 2 103 4 11 28 13 103 11
l98 -3 3 -103z"/>
<path d="M1745 2436 c-51 -22 -97 -68 -121 -121 -21 -44 -24 -65 -24 -174 0
-143 10 -186 58 -241 63 -74 96 -85 262 -85 166 0 199 11 262 85 48 55 58 98
58 241 0 109 -3 130 -24 174 -25 54 -71 100 -123 122 -44 18 -306 18 -348 -1z
m280 -301 l0 -100 -105 0 -105 0 -3 89 c-2 49 0 96 2 103 4 11 29 13 108 11
l103 -3 0 -100z"/>
<path d="M885 1576 c-54 -25 -100 -71 -122 -123 -18 -45 -18 -301 0 -346 22
-52 68 -98 122 -123 44 -21 65 -24 174 -24 143 0 186 10 241 58 74 63 85 96
85 262 0 166 -11 199 -85 262 -55 48 -98 58 -241 58 -109 0 -130 -3 -174 -24z
m280 -296 l0 -105 -100 0 -100 0 -3 94 c-1 52 0 101 2 108 4 11 28 13 103 11
l98 -3 0 -105z"/>
<path d="M1759 1587 c-57 -21 -97 -54 -126 -105 -27 -46 -28 -51 -28 -203 l0
-156 30 -49 c19 -30 49 -60 79 -79 l49 -30 157 0 157 0 49 30 c30 19 60 49 79
79 l30 49 0 157 0 157 -30 49 c-19 30 -49 60 -79 79 -48 29 -53 30 -190 33
-99 1 -152 -2 -177 -11z m259 -209 c7 -7 12 -44 12 -98 0 -54 -5 -91 -12 -98
-16 -16 -180 -16 -196 0 -7 7 -12 44 -12 98 0 54 5 91 12 98 7 7 44 12 98 12
54 0 91 -5 98 -12z"/>
<path d="M4245 1675 c-17 -9 -150 -134 -295 -280 l-265 -265 -120 120 c-74 74
-132 123 -150 128 -71 20 -135 -28 -135 -101 0 -40 6 -47 180 -221 l180 -181
45 0 45 0 331 331 c308 308 331 333 332 367 1 48 -19 83 -58 102 -40 19 -52
19 -90 0z"/>
</g>
</svg>
